<?xml version="1.0" encoding="utf-8"?>
<!-- Generator: Adobe Illustrator 25.0.0, SVG Export Plug-In . SVG Version: 6.00 Build 0)  -->
<svg version="1.1" id="Layer_1" focusable="false" xmlns="http://www.w3.org/2000/svg" xmlns:xlink="http://www.w3.org/1999/xlink"
	 x="0px" y="0px" viewBox="0 0 183.5 183.5" style="enable-background:new 0 0 183.5 183.5;" xml:space="preserve">
<style type="text/css">
	.st0{fill:#F15A24;}
	.st1{fill:#FFFFFF;}
</style>
<g>
	<circle class="st0" cx="91.8" cy="91.8" r="91.8"/>
</g>
<g>
	<path class="st1" d="M105.5,91.5c-1.6,0-2.9,1.3-2.9,2.9v25.5h-51v-51h22.9c1.6,0,2.9-1.3,2.9-2.9s-1.3-2.9-2.9-2.9H51.6v-7.5
		c0-4.1,3.3-7.5,7.5-7.5h15.5c1.6,0,2.9-1.3,2.9-2.9c0-1.6-1.3-2.9-2.9-2.9H59.1c-7.3,0-13.2,5.9-13.2,13.2V133
		c0,7.3,5.9,13.2,13.2,13.2h36.1c7.3,0,13.2-5.9,13.2-13.2V94.3C108.4,92.7,107.1,91.5,105.5,91.5z M95.2,140.5H59.1
		c-4.1,0-7.5-3.3-7.5-7.5v-7.5h51v7.5C102.6,137.1,99.3,140.5,95.2,140.5z"/>
	<path class="st1" d="M74.5,52.8h-5.2c-1.6,0-2.9,1.3-2.9,2.9c0,1.6,1.3,2.9,2.9,2.9h5.2c1.6,0,2.9-1.3,2.9-2.9
		C77.4,54,76.1,52.8,74.5,52.8z"/>
	<path class="st1" d="M77.1,127.6c-3,0-5.4,2.4-5.4,5.4c0,3,2.4,5.4,5.4,5.4s5.4-2.4,5.4-5.4C82.6,130,80.1,127.6,77.1,127.6z
		 M76.8,133c0-0.2,0.1-0.3,0.3-0.3c0.2,0,0.3,0.1,0.3,0.3C77.4,133.3,76.8,133.3,76.8,133z"/>
	<path class="st1" d="M138.5,89.7L124,75.2c3.1-4,5-9,5-14.5c0-13-10.5-23.5-23.5-23.5c-13,0-23.5,10.5-23.5,23.5
		c0,13,10.5,23.5,23.5,23.5c5.4,0,10.5-1.9,14.5-5l14.5,14.5c0.6,0.6,1.3,0.8,2,0.8s1.5-0.3,2-0.8C139.6,92.7,139.6,90.8,138.5,89.7
		z M87.7,60.8c0-9.8,8-17.8,17.8-17.8c9.8,0,17.8,8,17.8,17.8c0,9.8-8,17.8-17.8,17.8C95.7,78.6,87.7,70.6,87.7,60.8z"/>
</g>
</svg>
