<?xml version="1.0" encoding="utf-8"?>
<!-- Generator: Adobe Illustrator 25.0.0, SVG Export Plug-In . SVG Version: 6.00 Build 0)  -->
<svg version="1.1" id="Layer_1" focusable="false" xmlns="http://www.w3.org/2000/svg" xmlns:xlink="http://www.w3.org/1999/xlink"
	 x="0px" y="0px" viewBox="0 0 20 20" style="enable-background:new 0 0 20 20;" xml:space="preserve">
<style type="text/css">
	.st0{fill:#43464E;}
</style>
<path class="st0" d="M10,18.6c-0.2,0-0.4-0.1-0.5-0.2L9,18.1C5,15,2.5,13.2,1.1,10.7c-1.4-2.4-1.2-4.2-0.8-5.4
	c0.5-1.4,1.5-2.5,2.9-3.2c0.7-0.3,1.5-0.5,2.4-0.5c1.8,0,3.4,0.7,4.5,1.9c1.1-1.2,2.7-1.9,4.5-1.9c0.8,0,1.6,0.2,2.4,0.5
	c1.4,0.6,2.5,1.8,2.9,3.2c0.4,1.2,0.5,3-0.8,5.4c-1.4,2.5-3.9,4.3-8,7.4l-0.4,0.3C10.4,18.6,10.2,18.6,10,18.6z M5.5,3.3
	c-0.6,0-1.1,0.1-1.6,0.3c-1,0.4-1.7,1.2-2,2.2C1.5,7,1.7,8.4,2.6,9.9c1.3,2.2,3.5,3.8,7.4,6.9c4-3,6.2-4.7,7.4-6.9
	c0.8-1.5,1.1-2.9,0.7-4.1c-0.3-1-1-1.7-2-2.2c-0.5-0.2-1.1-0.3-1.6-0.3c-1.6,0-3.1,0.9-3.7,2.2c-0.1,0.3-0.4,0.5-0.8,0.5
	c-0.3,0-0.6-0.2-0.8-0.5C8.6,4.2,7.1,3.3,5.5,3.3z"/>
</svg>
