<?xml version="1.0" encoding="utf-8"?>
<!-- Generator: Adobe Illustrator 25.0.0, SVG Export Plug-In . SVG Version: 6.00 Build 0)  -->
<svg version="1.1" id="Layer_1" focusable="false" xmlns="http://www.w3.org/2000/svg" xmlns:xlink="http://www.w3.org/1999/xlink"
	 x="0px" y="0px" viewBox="0 0 20 20" style="enable-background:new 0 0 20 20;" xml:space="preserve">
<style type="text/css">
	.st0{fill:#43464E;}
</style>
<path class="st0" d="M10,0c3.4,0,6.2,2.6,6.2,5.9c0,2.2-1.3,4.1-3.1,5.1c3.8,1.2,6.5,4.3,6.9,8.2c0.1,1-1.9,1-1.9,0.1
	c-0.4-3.9-3.9-6.9-8-6.9c-4.2,0-7.6,3-8,6.9c-0.1,0.9-2.1,0.9-2-0.1c0.4-3.9,3.2-7.1,6.9-8.2C5,10,3.8,8.1,3.8,5.9
	C3.8,2.6,6.6,0,10,0z M10,1.9c-2.4,0-4.3,1.8-4.3,4C5.7,8.2,7.6,10,10,10c2.3,0,4.2-1.8,4.2-4.1C14.2,3.7,12.3,1.9,10,1.9z"/>
</svg>
