<?xml version="1.0" encoding="utf-8"?>
<!-- Generator: Adobe Illustrator 25.0.0, SVG Export Plug-In . SVG Version: 6.00 Build 0)  -->
<svg version="1.1" id="Layer_1" focusable="false" xmlns="http://www.w3.org/2000/svg" xmlns:xlink="http://www.w3.org/1999/xlink"
	 x="0px" y="0px" viewBox="0 0 183.5 183.5" style="enable-background:new 0 0 183.5 183.5;" xml:space="preserve">
<style type="text/css">
	.st0{fill:#F15A24;}
	.st1{fill:#FFFFFF;}
</style>
<g>
	<circle class="st0" cx="91.8" cy="91.8" r="91.8"/>
</g>
<g>
	<path class="st1" d="M144.9,51.7H80.2c-1.7,0-3.1,1.4-3.1,3.1v6.1H59.4c-1.1,0-2.2,0.6-2.7,1.6L45.3,82.9l-8.9,8.9
		c-0.6,0.6-0.9,1.4-0.9,2.2v25.4c0,1.7,1.4,3.1,3.1,3.1h8.8c1.4,5.3,6.2,9.2,12,9.2s10.6-3.9,12-9.2h40.8c1.4,5.3,6.2,9.2,12,9.2
		c5.7,0,10.6-3.9,12-9.2h8.8c1.7,0,3.1-1.4,3.1-3.1V54.8C148,53.1,146.6,51.7,144.9,51.7z M141.8,57.9v49.2H83.3V64c0,0,0,0,0,0
		v-6.1H141.8z M112.1,116.4H71.4c-0.3-1.1-0.7-2.1-1.2-3h43.2C112.8,114.3,112.4,115.3,112.1,116.4z M50.1,87
		c0.2-0.2,0.4-0.4,0.5-0.7l10.7-19.2h15.8v40H41.7V95.4L50.1,87z M41.7,113.4h6.9c-0.5,0.9-0.9,1.9-1.2,3h-5.7V113.4z M59.4,125.6
		c-3.4,0-6.1-2.7-6.1-6.1c0,0,0,0,0,0s0,0,0,0c0-3.4,2.7-6.1,6.1-6.1c3.4,0,6.1,2.7,6.1,6.1S62.8,125.6,59.4,125.6z M124.1,125.6
		c-3.4,0-6.1-2.7-6.1-6.1s2.7-6.1,6.1-6.1c3.4,0,6.1,2.7,6.1,6.1c0,0,0,0,0,0s0,0,0,0C130.2,122.9,127.5,125.6,124.1,125.6z
		 M136.1,116.4c-0.3-1.1-0.7-2.1-1.2-3h6.9v3H136.1z"/>
	<path class="st1" d="M55.7,89.9c0.4,0.2,0.9,0.3,1.4,0.3c1.1,0,2.3-0.6,2.8-1.7L66,76.4h5c1.7,0,3.1-1.4,3.1-3.1
		c0-1.7-1.4-3.1-3.1-3.1H64c-1.2,0-2.3,0.7-2.8,1.7l-6.9,13.9C53.5,87.3,54.1,89.2,55.7,89.9z"/>
</g>
</svg>
