<?xml version="1.0" encoding="utf-8"?>
<!-- Generator: Adobe Illustrator 25.0.0, SVG Export Plug-In . SVG Version: 6.00 Build 0)  -->
<svg version="1.1" id="Layer_1" focusable="false" xmlns="http://www.w3.org/2000/svg" xmlns:xlink="http://www.w3.org/1999/xlink"
	 x="0px" y="0px" viewBox="0 0 183.5 183.5" style="enable-background:new 0 0 183.5 183.5;" xml:space="preserve">
<style type="text/css">
	.st0{fill:#F15A24;}
	.st1{fill:#FFFFFF;}
</style>
<g>
	<circle class="st0" cx="91.8" cy="91.8" r="91.8"/>
</g>
<g>
	<path class="st1" d="M82.9,82.9c-1.1,1.1-1.1,2.8,0,3.9l2.1,2.1c-2.4,4.1-1.8,9.4,1.7,12.9c4.2,4.2,11,4.2,15.2,0c2-2,5.3-2,7.3,0
		c2,2,2,5.3,0,7.4c-2,2-5.3,2-7.4,0c-1.1-1.1-2.8-1.1-3.9,0c-1.1,1.1-1.1,2.8,0,3.9c2.1,2.1,4.8,3.1,7.6,3.1c1.9,0,3.7-0.5,5.3-1.5
		l2.1,2.1c0.5,0.5,1.3,0.8,2,0.8c0.7,0,1.4-0.3,2-0.8c1.1-1.1,1.1-2.8,0-3.9l-2.1-2.1c2.4-4.1,1.8-9.4-1.7-13
		c-4.2-4.2-11-4.2-15.2,0c-2,2-5.3,2-7.3,0c-2-2-2-5.3,0-7.3c1-1,2.3-1.5,3.7-1.5c0,0,0,0,0,0c1.4,0,2.7,0.5,3.7,1.5
		c1.1,1.1,2.8,1.1,3.9,0c1.1-1.1,1.1-2.8,0-3.9c-3.5-3.5-8.8-4-13-1.7l-2.1-2.1C85.8,81.8,84,81.8,82.9,82.9z"/>
	<path class="st1" d="M138.2,101.4L89.8,53.1c-0.5-0.5-1.2-0.8-2-0.8H56.2l-6.9-6.9c-1.1-1.1-2.8-1.1-3.9,0c-1.1,1.1-1.1,2.8,0,3.9
		l6.9,6.9l0,31.7c0,0.7,0.3,1.4,0.8,2l48.3,48.3c0.5,0.5,1.2,0.8,2,0.8s1.4-0.3,2-0.8l32.8-32.8
		C139.3,104.3,139.3,102.5,138.2,101.4z M103.4,132.3L57.9,86.7l0-25l7.4,7.4c-0.9,1.5-1.4,3.3-1.4,5.2c0,5.8,4.7,10.5,10.5,10.5
		s10.5-4.7,10.5-10.5s-4.7-10.5-10.5-10.5c-1.9,0-3.6,0.5-5.2,1.4l-7.5-7.5h25l45.5,45.6L103.4,132.3z M70.5,74.4
		c0.5,0.5,1.3,0.8,2,0.8c0.7,0,1.4-0.3,2-0.8c1.1-1.1,1.1-2.8,0-3.9l-0.9-0.9c0.3-0.1,0.6-0.1,0.9-0.1c2.7,0,5,2.2,5,5s-2.2,5-5,5
		s-5-2.2-5-5c0-0.3,0-0.6,0.1-0.9L70.5,74.4z"/>
</g>
</svg>
