<?xml version="1.0" encoding="utf-8"?>
<!-- Generator: Adobe Illustrator 25.0.0, SVG Export Plug-In . SVG Version: 6.00 Build 0)  -->
<svg version="1.1" id="Layer_1" focusable="false" xmlns="http://www.w3.org/2000/svg" xmlns:xlink="http://www.w3.org/1999/xlink"
	 x="0px" y="0px" viewBox="0 0 183.5 183.5" style="enable-background:new 0 0 183.5 183.5;" xml:space="preserve">
<style type="text/css">
	.st0{fill:#F15A24;}
	.st1{fill:#FFFFFF;}
</style>
<g>
	<circle class="st0" cx="91.8" cy="91.8" r="91.8"/>
</g>
<g>
	<path class="st1" d="M117.3,79c-0.1-0.2-0.3-0.5-0.4-0.7c0,0-0.1-0.1-0.1-0.1c-0.2-0.2-0.4-0.4-0.7-0.5L93,66.2
		c-0.8-0.4-1.7-0.4-2.5,0l-23,11.5c-0.3,0.1-0.5,0.3-0.7,0.5c0,0-0.1,0.1-0.1,0.1c-0.2,0.2-0.3,0.4-0.4,0.7c0,0.1-0.1,0.2-0.1,0.2
		c-0.1,0.3-0.2,0.6-0.2,1v23c0,1.1,0.6,2,1.6,2.5l23,11.5c0,0,0.1,0,0.1,0c0.4,0.2,0.8,0.3,1.2,0.3s0.8-0.1,1.2-0.3c0,0,0.1,0,0.1,0
		l23-11.5c1-0.5,1.6-1.5,1.6-2.5v-23c0-0.3-0.1-0.7-0.2-1C117.4,79.2,117.3,79.1,117.3,79z M91.7,71.9l16.7,8.4l-16.7,8.4L75,80.2
		L91.7,71.9z M71.5,84.8l17.4,8.7v16.7l-17.4-8.7V84.8z M94.6,110.2V93.5l17.4-8.7v16.7L94.6,110.2z"/>
	<path class="st1" d="M59.5,79.7H46.9l5.6-6.9c1-1.2,0.8-3-0.4-4c-1.2-1-3-0.8-4,0.4l-9.2,11.5c-0.1,0.1-0.2,0.3-0.2,0.4
		c-0.1,0.1-0.1,0.2-0.2,0.3c-0.3,0.7-0.3,1.4,0,2c0,0.1,0.1,0.2,0.2,0.3c0.1,0.1,0.1,0.3,0.2,0.4l9.2,11.5c0.6,0.7,1.4,1.1,2.2,1.1
		c0.6,0,1.2-0.2,1.8-0.6c1.2-1,1.4-2.7,0.4-4l-5.6-6.9h12.6c1.6,0,2.8-1.3,2.8-2.8S61.1,79.7,59.5,79.7z"/>
	<path class="st1" d="M101.5,131l-6.9,5.6V124c0-1.6-1.3-2.8-2.8-2.8s-2.8,1.3-2.8,2.8v12.6L82,131c-1.2-1-3-0.8-4,0.4
		c-1,1.2-0.8,3,0.4,4l11.5,9.2c0.1,0.1,0.3,0.2,0.4,0.2c0.1,0.1,0.2,0.1,0.3,0.2c0.3,0.1,0.7,0.2,1,0.2c0.3,0,0.7-0.1,1-0.2
		c0.1,0,0.2-0.1,0.3-0.2c0.1-0.1,0.3-0.1,0.4-0.2l11.5-9.2c1.2-1,1.4-2.7,0.4-4C104.5,130.2,102.7,130.1,101.5,131z"/>
	<path class="st1" d="M82,52.5l6.9-5.6v12.6c0,1.6,1.3,2.8,2.8,2.8s2.8-1.3,2.8-2.8V46.9l6.9,5.6c0.5,0.4,1.1,0.6,1.8,0.6
		c0.8,0,1.6-0.4,2.2-1.1c1-1.2,0.8-3-0.4-4l-11.5-9.2c-0.1-0.1-0.3-0.2-0.4-0.2c-0.1-0.1-0.2-0.1-0.3-0.2c-0.3-0.1-0.7-0.2-1-0.2
		c0,0,0,0,0,0c0,0,0,0,0,0c-0.3,0-0.7,0.1-1,0.2c-0.1,0-0.2,0.1-0.3,0.2c-0.1,0.1-0.3,0.1-0.4,0.2l-11.5,9.2c-1.2,1-1.4,2.7-0.4,4
		C79,53.3,80.8,53.4,82,52.5z"/>
	<path class="st1" d="M145,83.5c0.3-0.7,0.3-1.4,0-2c0-0.1-0.1-0.2-0.2-0.3c-0.1-0.1-0.1-0.3-0.2-0.4l-9.2-11.5
		c-1-1.2-2.7-1.4-4-0.4c-1.2,1-1.4,2.7-0.4,4l5.6,6.9H124c-1.6,0-2.8,1.3-2.8,2.8s1.3,2.8,2.8,2.8h12.6l-5.6,6.9c-1,1.2-0.8,3,0.4,4
		c0.5,0.4,1.1,0.6,1.8,0.6c0.8,0,1.6-0.4,2.2-1.1l9.2-11.5c0.1-0.1,0.2-0.3,0.2-0.4C144.9,83.8,145,83.7,145,83.5z"/>
</g>
</svg>
